grf
version=1
nRows=47
nColumns=19
inDegrees=yes
endheader
time	ground_force_1_vx	ground_force_1_vy	ground_force_1_vz	ground_force_1_px	ground_force_1_py	ground_force_1_pz	ground_moment_1_mx	ground_moment_1_my	ground_moment_1_mz	ground_force_2_vx	ground_force_2_vy	ground_force_2_vz	ground_force_2_px	ground_force_2_py	ground_force_2_pz	ground_moment_2_mx	ground_moment_2_my	ground_moment_2_mz
5.790000	41.816635	1429.171509	-505.574341	0.144480	0.000000	-0.783761	0.000000	8.735436	0.000000	-10.835232	1465.185547	554.478516	0.180720	0.000000	-1.581763	0.000000	-9.539109	-0.000000
5.791000	42.832642	1410.150635	-506.095123	0.142585	0.000000	-0.782507	0.000000	9.191557	0.000000	-11.359104	1464.885010	554.799927	0.181403	0.000000	-1.582459	0.000000	-9.275977	-0.000000
5.792000	42.669762	1408.881104	-506.778839	0.142146	0.000000	-0.781952	0.000000	9.457490	0.000000	-11.116702	1468.874634	555.121033	0.181474	0.000000	-1.582691	0.000000	-9.059154	-0.000000
5.793000	45.131157	1414.965698	-507.303345	0.142829	0.000000	-0.782109	0.000000	9.058443	0.000000	-11.881046	1469.659912	555.604736	0.181109	0.000000	-1.582318	0.000000	-9.397290	-0.000000
5.794000	42.710007	1419.123169	-507.986633	0.142752	0.000000	-0.782763	0.000000	9.227961	0.000000	-12.563532	1476.678467	555.643982	0.181514	0.000000	-1.581545	0.000000	-8.929105	-0.000000
5.795000	42.910469	1421.383545	-507.946228	0.142065	0.000000	-0.783159	0.000000	9.631545	0.000000	-9.751040	1466.159302	556.609741	0.181341	0.000000	-1.582737	0.000000	-9.437587	-0.000000
5.796000	43.759033	1419.781860	-508.024414	0.142597	0.000000	-0.782914	-0.000000	9.166082	0.000000	-12.040764	1462.336792	556.810059	0.181008	0.000000	-1.582894	0.000000	-9.252054	-0.000000
5.797000	44.690361	1419.465332	-508.748108	0.142318	0.000000	-0.782954	-0.000000	9.108335	0.000000	-13.609759	1467.110352	557.050903	0.181201	0.000000	-1.582552	0.000000	-9.164405	0.000000
5.798000	43.355064	1412.741943	-508.585571	0.141836	0.000000	-0.782433	0.000000	9.487915	0.000000	-13.126335	1471.419678	556.850037	0.181390	0.000000	-1.582050	0.000000	-8.968853	-0.000000
5.799000	45.133820	1419.645874	-509.390991	0.142001	0.000000	-0.782787	0.000000	9.227102	0.000000	-13.528591	1466.644531	557.372559	0.181289	0.000000	-1.583147	0.000000	-9.034722	-0.000000
5.800000	45.499062	1416.900635	-509.106323	0.142404	0.000000	-0.782899	-0.000000	8.792257	0.000000	-15.018765	1465.198120	557.774658	0.180791	0.000000	-1.582262	0.000000	-9.553974	-0.000000
5.801000	44.406750	1411.170288	-510.516571	0.140853	0.000000	-0.780756	0.000000	9.760020	0.000000	-13.367495	1476.362061	557.532654	0.181639	0.000000	-1.582360	0.000000	-8.738199	-0.000000
5.802000	44.732891	1419.979980	-511.036133	0.141649	0.000000	-0.782242	0.000000	9.122745	0.000000	-12.322924	1478.757202	558.659180	0.182025	0.000000	-1.583754	0.000000	-8.736370	-0.000000
5.803000	46.907631	1409.079468	-508.505737	0.142146	0.000000	-0.781181	0.000000	9.046478	0.000000	-14.733707	1472.691040	559.141296	0.180885	0.000000	-1.582702	0.000000	-9.064213	-0.000000
5.804000	45.900368	1417.102905	-509.176392	0.141462	0.000000	-0.781854	0.000000	8.866973	0.000000	-14.453341	1469.036133	558.537354	0.181302	0.000000	-1.582985	0.000000	-8.896373	-0.000000
5.805000	45.499825	1417.102783	-511.236511	0.141584	0.000000	-0.782374	0.000000	9.080342	0.000000	-15.055210	1473.488892	561.273926	0.180509	0.000000	-1.582405	0.000000	-9.404820	0.000000
5.806000	45.780777	1408.802856	-511.518585	0.139997	0.000000	-0.782254	0.000000	9.958007	0.000000	-15.417436	1470.619385	559.663330	0.180901	0.000000	-1.582448	0.000000	-9.001628	-0.000000
5.807000	45.093952	1417.444946	-512.605591	0.140771	0.000000	-0.782227	0.000000	9.672552	0.000000	-15.337646	1479.550659	559.180725	0.181045	0.000000	-1.582259	0.000000	-8.974602	-0.000000
5.808000	46.430397	1422.558838	-512.562866	0.141272	0.000000	-0.783486	0.000000	9.095985	0.000000	-13.728617	1480.664795	561.392578	0.181022	0.000000	-1.581301	0.000000	-8.994953	-0.000000
5.809000	49.657204	1419.041504	-512.320251	0.140966	0.000000	-0.783230	0.000000	9.083329	0.000000	-15.739765	1464.261963	560.426758	0.181590	0.000000	-1.583214	0.000000	-8.647960	-0.000000
5.810000	46.191589	1419.694580	-514.661560	0.140794	0.000000	-0.783053	0.000000	9.481597	0.000000	-18.197893	1475.402710	561.350708	0.180639	0.000000	-1.582321	0.000000	-9.667275	-0.000000
5.811000	49.351219	1427.679199	-512.964783	0.141741	0.000000	-0.783137	0.000000	8.017597	0.000000	-16.382219	1475.391602	561.109863	0.180569	0.000000	-1.582028	0.000000	-9.050600	-0.000000
5.812000	47.726978	1416.178101	-513.726990	0.140536	0.000000	-0.782410	0.000000	9.030693	0.000000	-15.616358	1474.608887	560.827026	0.180648	0.000000	-1.582263	0.000000	-8.683201	-0.000000
5.813000	47.198853	1419.054321	-514.172729	0.141017	0.000000	-0.782253	-0.000000	9.092201	0.000000	-15.414952	1472.999146	561.631226	0.180322	0.000000	-1.582393	0.000000	-8.837620	-0.000000
5.814000	48.129807	1412.657349	-515.051270	0.140646	0.000000	-0.781069	0.000000	8.789708	0.000000	-17.947491	1476.196533	561.188599	0.180516	0.000000	-1.581969	0.000000	-8.549459	-0.000000
5.815000	47.603958	1423.224854	-513.765991	0.140825	0.000000	-0.783407	0.000000	8.968612	0.000000	-15.737834	1478.919434	561.670654	0.180017	0.000000	-1.579229	0.000000	-9.020607	-0.000000
5.816000	48.613121	1422.108643	-514.448303	0.140449	0.000000	-0.783525	0.000000	9.041241	0.000000	-15.375057	1475.879883	561.911011	0.180284	0.000000	-1.582391	0.000000	-8.752802	-0.000000
5.817000	48.211052	1420.194458	-514.530029	0.140084	0.000000	-0.782668	0.000000	9.198886	0.000000	-15.214099	1477.304443	561.428345	0.180037	0.000000	-1.581981	0.000000	-8.855946	-0.000000
5.818000	48.370132	1419.559937	-515.614258	0.139928	0.000000	-0.782643	0.000000	9.294827	0.000000	-15.093587	1485.423828	561.267090	0.180138	0.000000	-1.581069	0.000000	-8.759990	0.000000
5.819000	48.292686	1421.159302	-516.298462	0.140208	0.000000	-0.782595	0.000000	9.029905	0.000000	-15.576324	1477.464844	561.668335	0.179652	0.000000	-1.581600	0.000000	-8.985884	-0.000000
5.820000	48.369751	1426.290649	-516.700623	0.139967	0.000000	-0.783461	0.000000	9.342567	0.000000	-14.529819	1478.742310	561.869629	0.180091	0.000000	-1.582100	0.000000	-8.667837	-0.000000
5.821000	48.291924	1423.237427	-514.560181	0.140309	0.000000	-0.783254	0.000000	8.681605	0.000000	-14.046946	1477.452759	561.747864	0.179002	0.000000	-1.581211	0.000000	-9.132983	-0.000000
5.822000	47.073929	1437.003174	-517.262939	0.141239	0.000000	-0.785365	-0.000000	8.999784	0.000000	-13.121367	1474.277954	560.862305	0.179687	0.000000	-1.581716	0.000000	-8.594500	-0.000000
5.823000	49.552826	1435.083374	-517.706604	0.141403	0.000000	-0.784173	0.000000	8.044251	0.000000	-12.758452	1465.838379	562.552246	0.179542	0.000000	-1.582645	0.000000	-8.698700	-0.000000
5.824000	46.917900	1429.501099	-518.788940	0.140320	0.000000	-0.782581	0.000000	9.021121	0.000000	-12.477121	1480.318481	561.143799	0.178888	0.000000	-1.580768	0.000000	-8.944041	-0.000000
5.825000	46.636185	1425.973145	-517.736511	0.140137	0.000000	-0.782611	-0.000000	8.823740	0.000000	-11.672743	1474.745605	561.141846	0.178275	0.000000	-1.580975	0.000000	-9.115383	-0.000000
5.826000	48.348145	1440.689087	-519.796387	0.141309	0.000000	-0.783373	0.000000	7.783537	0.000000	-10.786922	1468.210938	560.819702	0.178402	0.000000	-1.581409	0.000000	-8.884428	-0.000000
5.827000	46.037079	1426.612427	-519.755493	0.140359	0.000000	-0.782695	0.000000	8.804370	0.000000	-10.826680	1471.707397	559.774109	0.178063	0.000000	-1.580649	0.000000	-8.979681	-0.000000
5.828000	45.715118	1423.094116	-520.921692	0.140121	0.000000	-0.782619	0.000000	8.892767	0.000000	-9.458261	1473.143799	560.175537	0.177883	0.000000	-1.580858	0.000000	-8.918343	-0.000000
5.829000	45.875336	1434.154663	-521.281128	0.140197	0.000000	-0.782997	-0.000000	8.804180	0.000000	-9.498429	1464.539795	559.933044	0.177933	0.000000	-1.581135	0.000000	-8.765683	-0.000000
5.830000	47.259254	1419.121094	-521.042664	0.139072	0.000000	-0.783341	0.000000	8.948083	0.000000	-8.855149	1471.389648	559.047119	0.177967	0.000000	-1.580945	0.000000	-8.634686	-0.000000
5.831000	45.591347	1429.990112	-522.409424	0.140228	0.000000	-0.782457	-0.000000	8.929726	0.000000	-8.130701	1470.258301	558.603821	0.177207	0.000000	-1.580120	0.000000	-8.900268	-0.000000
5.832000	45.879906	1429.023315	-522.408997	0.140036	0.000000	-0.781739	0.000000	8.703235	0.000000	-6.238822	1460.562256	561.301147	0.177914	0.000000	-1.582107	0.000000	-8.665840	0.000000
5.833000	45.395447	1434.145264	-523.613953	0.140742	0.000000	-0.782360	0.000000	8.324679	0.000000	-7.966292	1461.017700	558.362244	0.176648	0.000000	-1.580420	0.000000	-8.767832	-0.000000
5.834000	44.702919	1422.165527	-523.655029	0.139182	0.000000	-0.782438	0.000000	9.495459	0.000000	-5.594851	1469.949707	557.677368	0.176920	0.000000	-1.579814	0.000000	-8.655354	-0.000000
5.835000	44.709003	1437.066284	-524.987061	0.139768	0.000000	-0.781613	0.000000	9.083969	0.000000	-3.862549	1472.324951	558.560913	0.176793	0.000000	-1.579800	0.000000	-8.302774	-0.000000
5.836000	45.756889	1438.493774	-523.536438	0.139744	0.000000	-0.783551	0.000000	9.077572	0.000000	-5.151043	1471.215332	557.353882	0.176642	0.000000	-1.580902	0.000000	-8.480887	-0.000000
